ffmpeg started on 2016-12-07 at 05:21:10
Report written to "Output/x264/results/ffmpeg/sintelslow1500k.log"
Command line:
Tools/ffmpeg/ffmpeg -benchmark -y -i Input/y4m/sintel.y4m -c:v libx264 -preset slow -b:v 1500k -an Output/x264/encoded/sintelslow1500k.mkv
ffmpeg version N-82227-gdb23fde Copyright (c) 2000-2016 the FFmpeg developers
  built with gcc 5.4.0 (Ubuntu 5.4.0-6ubuntu1~16.04.2) 20160609
  configuration: --prefix=/home/jaroslav/ffmpeg_build --pkg-config-flags=--static --extra-cflags=-I/home/jaroslav/ffmpeg_build/include --extra-ldflags=-L/home/jaroslav/ffmpeg_build/lib --bindir=/home/jaroslav/bin --enable-gpl --enable-libass --enable-libfdk-aac --enable-libfreetype --enable-libmp3lame --enable-libopus --enable-libtheora --enable-libvorbis --enable-libvpx --enable-libx264 --enable-libx265 --enable-nvenc --enable-libmfx --enable-libxvid --enable-libgsm --enable-libopencore-amrnb --enable-version3 --enable-nonfree
  libavutil      55. 35.100 / 55. 35.100
  libavcodec     57. 66.101 / 57. 66.101
  libavformat    57. 57.100 / 57. 57.100
  libavdevice    57.  2.100 / 57.  2.100
  libavfilter     6. 66.100 /  6. 66.100
  libswscale      4.  3.100 /  4.  3.100
  libswresample   2.  4.100 /  2.  4.100
  libpostproc    54.  2.100 / 54.  2.100
Input #0, yuv4mpegpipe, from 'Input/y4m/sintel.y4m':
  Duration: 00:00:20.83, start: 0.000000, bitrate: 2057307 kb/s
    Stream #0:0: Video: rawvideo (I420 / 0x30323449), yuv420p(progressive), 4096x1744, SAR 1:1 DAR 256:109, 24 fps, 24 tbr, 24 tbn, 24 tbc
[libx264 @ 0x334c120] using SAR=1/1
[libx264 @ 0x334c120] using cpu capabilities: MMX2 SSE2Fast SSSE3 SSE4.2 AVX FMA3 AVX2 LZCNT BMI2
[libx264 @ 0x334c120] profile High, level 5.1
[libx264 @ 0x334c120] 264 - core 148 - H.264/MPEG-4 AVC codec - Copyleft 2003-2016 - http://www.videolan.org/x264.html - options: cabac=1 ref=5 deblock=1:0:0 analyse=0x3:0x113 me=hex subme=8 psy=1 psy_rd=1.00:0.00 mixed_ref=1 me_range=16 chroma_me=1 trellis=2 8x8dct=1 cqm=0 deadzone=21,11 fast_pskip=1 chroma_qp_offset=-2 threads=6 lookahead_threads=1 sliced_threads=0 nr=0 decimate=1 interlaced=0 bluray_compat=0 constrained_intra=0 bframes=3 b_pyramid=2 b_adapt=1 b_bias=0 direct=3 weightb=1 open_gop=0 weightp=2 keyint=250 keyint_min=24 scenecut=40 intra_refresh=0 rc_lookahead=50 rc=abr mbtree=1 bitrate=1500 ratetol=1.0 qcomp=0.60 qpmin=0 qpmax=69 qpstep=4 ip_ratio=1.40 aq=1:1.00
Output #0, matroska, to 'Output/x264/encoded/sintelslow1500k.mkv':
  Metadata:
    encoder         : Lavf57.57.100
    Stream #0:0: Video: h264 (libx264) (H264 / 0x34363248), yuv420p, 4096x1744 [SAR 1:1 DAR 256:109], q=-1--1, 1500 kb/s, 24 fps, 1k tbn, 24 tbc
    Metadata:
      encoder         : Lavc57.66.101 libx264
    Side data:
      cpb: bitrate max/min/avg: 0/0/1500000 buffer size: 0 vbv_delay: -1
Stream mapping:
  Stream #0:0 -> #0:0 (rawvideo (native) -> h264 (libx264))
Press [q] to stop, [?] for help
frame=    9 fps=0.0 q=0.0 size=       0kB time=00:00:00.00 bitrate=N/A speed=   0x    frame=   18 fps= 17 q=0.0 size=       0kB time=00:00:00.00 bitrate=N/A speed=   0x    frame=   27 fps= 17 q=0.0 size=       0kB time=00:00:00.00 bitrate=N/A speed=   0x    frame=   36 fps= 17 q=0.0 size=       0kB time=00:00:00.00 bitrate=N/A speed=   0x    frame=   45 fps= 17 q=0.0 size=       0kB time=00:00:00.00 bitrate=N/A speed=   0x    frame=   54 fps= 17 q=0.0 size=       0kB time=00:00:00.00 bitrate=N/A speed=   0x    frame=   57 fps=9.4 q=0.0 size=       0kB time=00:00:00.00 bitrate=N/A speed=   0x    frame=   58 fps=6.0 q=0.0 size=       0kB time=00:00:00.00 bitrate=N/A speed=   0x    frame=   63 fps=6.0 q=42.0 size=       1kB time=00:00:00.00 bitrate=5872.0kbits/s speed=9.59e-05x    frame=   67 fps=6.1 q=56.0 size=       1kB time=00:00:00.16 bitrate=  35.0kbits/s speed=0.0152x    frame=   71 fps=6.1 q=56.0 size=       1kB time=00:00:00.33 bitrate=  17.6kbits/s speed=0.0286x    frame=   76 fps=6.2 q=57.0 size=       1kB time=00:00:00.54 bitrate=  10.8kbits/s speed=0.0443x    frame=   82 fps=6.4 q=58.0 size=       1kB time=00:00:00.79 bitrate=   7.4kbits/s speed=0.0616x    frame=   85 fps=6.3 q=58.0 size=       1kB time=00:00:00.91 bitrate=   6.4kbits/s speed=0.0684x    frame=   92 fps=6.6 q=58.0 size=       1kB time=00:00:01.20 bitrate=   4.9kbits/s speed=0.0868x    frame=   96 fps=6.6 q=58.0 size=       1kB time=00:00:01.37 bitrate=   4.3kbits/s speed=0.0951x    frame=  101 fps=6.7 q=58.0 size=       1kB time=00:00:01.58 bitrate=   3.7kbits/s speed=0.105x    frame=  108 fps=6.9 q=58.0 size=       1kB time=00:00:01.87 bitrate=   3.1kbits/s speed=0.119x    frame=  113 fps=6.9 q=58.0 size=       1kB time=00:00:02.08 bitrate=   2.8kbits/s speed=0.128x    frame=  119 fps=7.0 q=58.0 size=       1kB time=00:00:02.33 bitrate=   2.5kbits/s speed=0.137x    frame=  123 fps=7.0 q=58.0 size=       1kB time=00:00:02.50 bitrate=   2.3kbits/s speed=0.142x    frame=  127 fps=7.0 q=58.0 size=       1kB time=00:00:02.66 bitrate=   2.2kbits/s speed=0.146x    frame=  133 fps=7.0 q=58.0 size=       1kB time=00:00:02.91 bitrate=   2.0kbits/s speed=0.155x    frame=  137 fps=7.0 q=58.0 size=       1kB time=00:00:03.08 bitrate=   1.9kbits/s speed=0.159x    frame=  141 fps=7.1 q=58.0 size=       1kB time=00:00:03.25 bitrate=   1.8kbits/s speed=0.163x    frame=  146 fps=7.1 q=59.0 size=       1kB time=00:00:03.45 bitrate=   1.7kbits/s speed=0.168x    frame=  150 fps=7.0 q=59.0 size=       1kB time=00:00:03.62 bitrate=   1.6kbits/s speed=0.17x    frame=  155 fps=7.1 q=59.0 size=       1kB time=00:00:03.83 bitrate=   1.5kbits/s speed=0.175x    frame=  163 fps=7.2 q=59.0 size=     911kB time=00:00:04.16 bitrate=1790.1kbits/s speed=0.183x    frame=  171 fps=7.3 q=56.0 size=     911kB time=00:00:04.50 bitrate=1657.7kbits/s speed=0.193x    frame=  179 fps=7.5 q=58.0 size=     911kB time=00:00:04.83 bitrate=1543.5kbits/s speed=0.202x    frame=  185 fps=7.6 q=58.0 size=     911kB time=00:00:05.08 bitrate=1467.6kbits/s speed=0.208x    frame=  188 fps=7.5 q=58.0 size=     911kB time=00:00:05.20 bitrate=1432.4kbits/s speed=0.208x    frame=  192 fps=7.5 q=59.0 size=     911kB time=00:00:05.37 bitrate=1387.9kbits/s speed=0.21x    frame=  196 fps=7.5 q=59.0 size=     911kB time=00:00:05.54 bitrate=1346.1kbits/s speed=0.213x    frame=  200 fps=7.5 q=59.0 size=     911kB time=00:00:05.70 bitrate=1306.9kbits/s speed=0.215x    frame=  206 fps=7.6 q=59.0 size=     911kB time=00:00:05.95 bitrate=1252.1kbits/s speed=0.22x    frame=  211 fps=7.6 q=60.0 size=     911kB time=00:00:06.16 bitrate=1209.7kbits/s speed=0.223x    frame=  220 fps=7.8 q=59.0 size=    1393kB time=00:00:06.54 bitrate=1743.5kbits/s speed=0.232x    frame=  223 fps=7.8 q=59.0 size=    1393kB time=00:00:06.66 bitrate=1710.8kbits/s speed=0.232x    frame=  228 fps=7.8 q=60.0 size=    1393kB time=00:00:06.87 bitrate=1659.1kbits/s speed=0.234x    frame=  232 fps=7.8 q=60.0 size=    1393kB time=00:00:07.04 bitrate=1619.7kbits/s speed=0.235x    frame=  237 fps=7.8 q=60.0 size=    1393kB time=00:00:07.25 bitrate=1573.3kbits/s speed=0.237x    frame=  242 fps=7.8 q=60.0 size=    1393kB time=00:00:07.45 bitrate=1529.4kbits/s speed=0.24x    frame=  251 fps=7.9 q=59.0 size=    1596kB time=00:00:07.83 bitrate=1668.5kbits/s speed=0.248x    frame=  258 fps=8.0 q=59.0 size=    1596kB time=00:00:08.12 bitrate=1608.5kbits/s speed=0.252x    frame=  262 fps=8.0 q=59.0 size=    1596kB time=00:00:08.29 bitrate=1576.1kbits/s speed=0.253x    frame=  267 fps=8.0 q=59.0 size=    1596kB time=00:00:08.50 bitrate=1537.6kbits/s speed=0.255x    frame=  274 fps=8.1 q=59.0 size=    1596kB time=00:00:08.79 bitrate=1486.5kbits/s speed=0.259x    frame=  284 fps=8.2 q=59.0 size=    1596kB time=00:00:09.20 bitrate=1419.4kbits/s speed=0.266x    frame=  293 fps=8.3 q=58.0 size=    1596kB time=00:00:09.58 bitrate=1363.8kbits/s speed=0.273x    frame=  300 fps=8.4 q=58.0 size=    1596kB time=00:00:09.87 bitrate=1323.5kbits/s speed=0.275x    frame=  307 fps=8.4 q=58.0 size=    1596kB time=00:00:10.16 bitrate=1285.5kbits/s speed=0.278x    frame=  313 fps=8.4 q=58.0 size=    1596kB time=00:00:10.41 bitrate=1254.6kbits/s speed=0.281x    frame=  322 fps=8.4 q=58.0 size=    1596kB time=00:00:10.79 bitrate=1211.0kbits/s speed=0.28x    frame=  331 fps=8.5 q=58.0 size=    2054kB time=00:00:11.16 bitrate=1506.6kbits/s speed=0.286x    frame=  341 fps=8.6 q=57.0 size=    2054kB time=00:00:11.58 bitrate=1452.5kbits/s speed=0.293x    frame=  349 fps=8.7 q=57.0 size=    2054kB time=00:00:11.91 bitrate=1411.8kbits/s speed=0.297x    frame=  359 fps=8.8 q=56.0 size=    2054kB time=00:00:12.33 bitrate=1364.2kbits/s speed=0.304x    frame=  371 fps=9.0 q=56.0 size=    2054kB time=00:00:12.83 bitrate=1311.0kbits/s speed=0.311x    frame=  379 fps=9.1 q=55.0 size=    2054kB time=00:00:13.16 bitrate=1277.8kbits/s speed=0.315x    frame=  389 fps=9.2 q=55.0 size=    2054kB time=00:00:13.58 bitrate=1238.6kbits/s speed=0.321x    frame=  398 fps=9.3 q=54.0 size=    2054kB time=00:00:13.95 bitrate=1205.4kbits/s speed=0.326x    frame=  405 fps=9.3 q=54.0 size=    2054kB time=00:00:14.25 bitrate=1180.7kbits/s speed=0.329x    frame=  413 fps=9.4 q=53.0 size=    2054kB time=00:00:14.58 bitrate=1153.7kbits/s speed=0.333x    frame=  419 fps=9.4 q=53.0 size=    2054kB time=00:00:14.83 bitrate=1134.3kbits/s speed=0.334x    frame=  427 fps=9.5 q=53.0 size=    2338kB time=00:00:15.16 bitrate=1262.7kbits/s speed=0.338x    frame=  435 fps=9.6 q=52.0 size=    2338kB time=00:00:15.50 bitrate=1235.6kbits/s speed=0.341x    frame=  443 fps=9.6 q=52.0 size=    2338kB time=00:00:15.83 bitrate=1209.6kbits/s speed=0.345x    frame=  452 fps=9.7 q=52.0 size=    2338kB time=00:00:16.20 bitrate=1181.6kbits/s speed=0.348x    frame=  459 fps=9.8 q=52.0 size=    2338kB time=00:00:16.50 bitrate=1160.7kbits/s speed=0.351x    frame=  465 fps=9.8 q=52.0 size=    2338kB time=00:00:16.75 bitrate=1143.4kbits/s speed=0.352x    frame=  472 fps=9.8 q=52.0 size=    2338kB time=00:00:17.04 bitrate=1123.8kbits/s speed=0.355x    frame=  479 fps=9.9 q=52.0 size=    2653kB time=00:00:17.33 bitrate=1253.7kbits/s speed=0.357x    frame=  488 fps=9.9 q=52.0 size=    2653kB time=00:00:17.70 bitrate=1227.1kbits/s speed=0.359x    frame=  498 fps= 10 q=51.0 size=    2653kB time=00:00:18.12 bitrate=1198.9kbits/s speed=0.363x    frame=  500 fps=9.5 q=-1.0 Lsize=    3070kB time=00:00:20.70 bitrate=1214.5kbits/s speed=0.393x    
video:3066kB audio:0kB subtitle:0kB other streams:0kB global headers:0kB muxing overhead: 0.144483%
bench: utime=159.180s
bench: maxrss=1814328kB
[libx264 @ 0x334c120] frame I:8     Avg QP:46.35  size: 19350
[libx264 @ 0x334c120] frame P:269   Avg QP:49.79  size:  8329
[libx264 @ 0x334c120] frame B:223   Avg QP:48.69  size:  3333
[libx264 @ 0x334c120] consecutive B-frames: 37.0%  8.4%  6.6% 48.0%
[libx264 @ 0x334c120] mb I  I16..4: 27.0% 72.8%  0.1%
[libx264 @ 0x334c120] mb P  I16..4: 10.9% 23.7%  0.0%  P16..4:  4.4%  0.1%  0.2%  0.0%  0.0%    skip:60.7%
[libx264 @ 0x334c120] mb B  I16..4:  0.4%  0.4%  0.0%  B16..8:  9.8%  0.1%  0.0%  direct: 0.1%  skip:89.1%  L0:44.9% L1:54.6% BI: 0.5%
[libx264 @ 0x334c120] final ratefactor: 48.99
[libx264 @ 0x334c120] 8x8 transform intra:68.5% inter:99.0%
[libx264 @ 0x334c120] direct mvs  spatial:98.7% temporal:1.3%
[libx264 @ 0x334c120] coded y,uvDC,uvAC intra: 1.4% 13.4% 0.0% inter: 0.1% 0.6% 0.0%
[libx264 @ 0x334c120] i16 v,h,dc,p: 59% 31%  3%  7%
[libx264 @ 0x334c120] i8 v,h,dc,ddl,ddr,vr,hd,vl,hu:  8%  3% 88%  0%  0%  0%  0%  0%  0%
[libx264 @ 0x334c120] i4 v,h,dc,ddl,ddr,vr,hd,vl,hu: 15%  6% 11% 16% 19%  7% 11%  5% 10%
[libx264 @ 0x334c120] i8c dc,h,v,p: 98%  1%  1%  0%
[libx264 @ 0x334c120] Weighted P-Frames: Y:1.1% UV:0.7%
[libx264 @ 0x334c120] ref P L0: 42.4%  0.9% 28.6% 11.2% 10.6%  6.2%
[libx264 @ 0x334c120] ref B L0: 76.8% 14.1%  7.9%  1.2%
[libx264 @ 0x334c120] ref B L1: 93.7%  6.3%
[libx264 @ 0x334c120] kb/s:1205.29
